<mxfile host="app.diagrams.net" modified="2021-04-08T11:55:28.623Z" agent="5.0 (Windows NT 6.1; Win64; x64) AppleWebKit/537.36 (KHTML, like Gecko) Chrome/89.0.4389.114 Safari/537.36" etag="3mFJYv007qCjsv8TV5KK" version="14.5.8" type="github">
  <diagram id="64KpuZ-ImGbf2fTRByrC" name="Page-1">
    <mxGraphModel dx="828" dy="1765" grid="1" gridSize="10" guides="1" tooltips="1" connect="1" arrows="1" fold="1" page="1" pageScale="1" pageWidth="827" pageHeight="1169" math="0" shadow="0">
      <root>
        <mxCell id="0" />
        <mxCell id="1" parent="0" />
        <mxCell id="rI9PQAO7Cf-_ZEgctdfI-1" value="" style="rounded=0;whiteSpace=wrap;html=1;fillColor=#dae8fc;strokeColor=#6c8ebf;" parent="1" vertex="1">
          <mxGeometry x="20" y="210" width="340" height="490" as="geometry" />
        </mxCell>
        <mxCell id="9YphuFcX1UK5CyFUVhHK-34" value="" style="rounded=0;whiteSpace=wrap;html=1;fillColor=#bac8d3;strokeColor=#23445d;" parent="1" vertex="1">
          <mxGeometry x="30" y="390" width="320" height="300" as="geometry" />
        </mxCell>
        <mxCell id="rI9PQAO7Cf-_ZEgctdfI-2" value="" style="rounded=0;whiteSpace=wrap;html=1;fillColor=#f8cecc;strokeColor=#b85450;" parent="1" vertex="1">
          <mxGeometry x="530" y="210" width="310" height="400" as="geometry" />
        </mxCell>
        <mxCell id="rI9PQAO7Cf-_ZEgctdfI-3" value="MAGAZYN" style="text;html=1;strokeColor=none;fillColor=none;align=center;verticalAlign=middle;whiteSpace=wrap;rounded=0;" parent="1" vertex="1">
          <mxGeometry x="170" y="160" width="40" height="20" as="geometry" />
        </mxCell>
        <mxCell id="rI9PQAO7Cf-_ZEgctdfI-4" value="BIURO" style="text;html=1;strokeColor=none;fillColor=none;align=center;verticalAlign=middle;whiteSpace=wrap;rounded=0;" parent="1" vertex="1">
          <mxGeometry x="665" y="160" width="40" height="20" as="geometry" />
        </mxCell>
        <mxCell id="rI9PQAO7Cf-_ZEgctdfI-6" value="(Aktualny stan: Prezes i 4 członków zarządu)" style="rounded=0;whiteSpace=wrap;html=1;fillColor=#fff2cc;strokeColor=#d6b656;" parent="1" vertex="1">
          <mxGeometry x="234" y="-10" width="360" height="140" as="geometry" />
        </mxCell>
        <mxCell id="rI9PQAO7Cf-_ZEgctdfI-7" value="ZARZĄD" style="text;html=1;strokeColor=none;fillColor=none;align=center;verticalAlign=middle;whiteSpace=wrap;rounded=0;" parent="1" vertex="1">
          <mxGeometry x="384" y="-60" width="40" height="20" as="geometry" />
        </mxCell>
        <mxCell id="rI9PQAO7Cf-_ZEgctdfI-8" value="" style="endArrow=classic;html=1;exitX=0.25;exitY=1;exitDx=0;exitDy=0;entryX=0.547;entryY=-0.002;entryDx=0;entryDy=0;entryPerimeter=0;" parent="1" source="rI9PQAO7Cf-_ZEgctdfI-6" target="rI9PQAO7Cf-_ZEgctdfI-1" edge="1">
          <mxGeometry width="50" height="50" relative="1" as="geometry">
            <mxPoint x="360" y="160" as="sourcePoint" />
            <mxPoint x="410" y="110" as="targetPoint" />
          </mxGeometry>
        </mxCell>
        <mxCell id="rI9PQAO7Cf-_ZEgctdfI-9" value="" style="endArrow=classic;html=1;exitX=0.781;exitY=1.007;exitDx=0;exitDy=0;exitPerimeter=0;entryX=0.5;entryY=0;entryDx=0;entryDy=0;" parent="1" source="rI9PQAO7Cf-_ZEgctdfI-6" target="rI9PQAO7Cf-_ZEgctdfI-2" edge="1">
          <mxGeometry width="50" height="50" relative="1" as="geometry">
            <mxPoint x="360" y="160" as="sourcePoint" />
            <mxPoint x="690" y="200" as="targetPoint" />
          </mxGeometry>
        </mxCell>
        <mxCell id="rI9PQAO7Cf-_ZEgctdfI-10" value="LOGISTYCY&lt;br&gt;(Aktualny stan: 4)" style="ellipse;whiteSpace=wrap;html=1;fillColor=#d80073;strokeColor=#A50040;fontColor=#ffffff;" parent="1" vertex="1">
          <mxGeometry x="560" y="280" width="250" height="100" as="geometry" />
        </mxCell>
        <mxCell id="rI9PQAO7Cf-_ZEgctdfI-11" value="GRAFICY&lt;br&gt;(Aktualny stan: 3)" style="ellipse;whiteSpace=wrap;html=1;fillColor=#a20025;strokeColor=#6F0000;fontColor=#ffffff;" parent="1" vertex="1">
          <mxGeometry x="550" y="440" width="270" height="100" as="geometry" />
        </mxCell>
        <mxCell id="rI9PQAO7Cf-_ZEgctdfI-12" value="MAGAZYNIERZY&lt;br&gt;(Aktualny stan: 6)" style="ellipse;whiteSpace=wrap;html=1;fillColor=#0050ef;strokeColor=#001DBC;fontColor=#ffffff;" parent="1" vertex="1">
          <mxGeometry x="30" y="560" width="320" height="120" as="geometry" />
        </mxCell>
        <mxCell id="rI9PQAO7Cf-_ZEgctdfI-13" value="KIEROWCY&lt;br&gt;(Aktualny stan: 2)" style="ellipse;whiteSpace=wrap;html=1;fillColor=#6a00ff;strokeColor=#3700CC;fontColor=#ffffff;" parent="1" vertex="1">
          <mxGeometry x="30" y="395" width="320" height="120" as="geometry" />
        </mxCell>
        <mxCell id="rI9PQAO7Cf-_ZEgctdfI-14" value="KADRA ZARZĄDZAJACA&lt;br&gt;(Aktualny stan: 2)&lt;br&gt;&lt;span style=&quot;color: rgba(0 , 0 , 0 , 0) ; font-family: monospace ; font-size: 0px&quot;&gt;%3CmxGraphModel%3E%3Croot%3E%3CmxCell%20id%3D%220%22%2F%3E%3CmxCell%20id%3D%221%22%20parent%3D%220%22%2F%3E%3CmxCell%20id%3D%222%22%20value%3D%22Kierowcy%26lt%3Bbr%26gt%3B(Aktualny%20stan%3A%202)%22%20style%3D%22ellipse%3BwhiteSpace%3Dwrap%3Bhtml%3D1%3BfillColor%3D%236a00ff%3BstrokeColor%3D%233700CC%3BfontColor%3D%23ffffff%3B%22%20vertex%3D%221%22%20parent%3D%221%22%3E%3CmxGeometry%20x%3D%2220%22%20y%3D%22360%22%20width%3D%22340%22%20height%3D%22120&lt;br&gt;&lt;/span&gt;" style="ellipse;whiteSpace=wrap;html=1;fillColor=#1ba1e2;strokeColor=#006EAF;fontColor=#ffffff;" parent="1" vertex="1">
          <mxGeometry x="20" y="220" width="340" height="120" as="geometry" />
        </mxCell>
        <mxCell id="9YphuFcX1UK5CyFUVhHK-1" value="" style="shape=actor;whiteSpace=wrap;html=1;" parent="1" vertex="1">
          <mxGeometry x="100" y="640" width="20" height="20" as="geometry" />
        </mxCell>
        <mxCell id="9YphuFcX1UK5CyFUVhHK-9" value="" style="shape=actor;whiteSpace=wrap;html=1;" parent="1" vertex="1">
          <mxGeometry x="130" y="640" width="20" height="20" as="geometry" />
        </mxCell>
        <mxCell id="9YphuFcX1UK5CyFUVhHK-10" value="" style="shape=actor;whiteSpace=wrap;html=1;" parent="1" vertex="1">
          <mxGeometry x="165" y="640" width="20" height="20" as="geometry" />
        </mxCell>
        <mxCell id="9YphuFcX1UK5CyFUVhHK-11" value="" style="shape=actor;whiteSpace=wrap;html=1;" parent="1" vertex="1">
          <mxGeometry x="195" y="640" width="20" height="20" as="geometry" />
        </mxCell>
        <mxCell id="9YphuFcX1UK5CyFUVhHK-12" value="" style="shape=actor;whiteSpace=wrap;html=1;" parent="1" vertex="1">
          <mxGeometry x="230" y="640" width="20" height="20" as="geometry" />
        </mxCell>
        <mxCell id="9YphuFcX1UK5CyFUVhHK-13" value="" style="shape=actor;whiteSpace=wrap;html=1;" parent="1" vertex="1">
          <mxGeometry x="260" y="640" width="20" height="20" as="geometry" />
        </mxCell>
        <mxCell id="9YphuFcX1UK5CyFUVhHK-14" value="" style="shape=actor;whiteSpace=wrap;html=1;" parent="1" vertex="1">
          <mxGeometry x="165" y="480" width="20" height="20" as="geometry" />
        </mxCell>
        <mxCell id="9YphuFcX1UK5CyFUVhHK-15" value="" style="shape=actor;whiteSpace=wrap;html=1;" parent="1" vertex="1">
          <mxGeometry x="195" y="480" width="20" height="20" as="geometry" />
        </mxCell>
        <mxCell id="9YphuFcX1UK5CyFUVhHK-16" value="" style="shape=actor;whiteSpace=wrap;html=1;" parent="1" vertex="1">
          <mxGeometry x="165" y="300" width="20" height="20" as="geometry" />
        </mxCell>
        <mxCell id="9YphuFcX1UK5CyFUVhHK-17" value="" style="shape=actor;whiteSpace=wrap;html=1;" parent="1" vertex="1">
          <mxGeometry x="195" y="300" width="20" height="20" as="geometry" />
        </mxCell>
        <mxCell id="9YphuFcX1UK5CyFUVhHK-18" value="" style="shape=actor;whiteSpace=wrap;html=1;fillColor=#f8cecc;strokeColor=#b85450;" parent="1" vertex="1">
          <mxGeometry x="324" y="90" width="20" height="20" as="geometry" />
        </mxCell>
        <mxCell id="9YphuFcX1UK5CyFUVhHK-19" value="" style="shape=actor;whiteSpace=wrap;html=1;fillColor=#f8cecc;strokeColor=#b85450;" parent="1" vertex="1">
          <mxGeometry x="354" y="90" width="20" height="20" as="geometry" />
        </mxCell>
        <mxCell id="9YphuFcX1UK5CyFUVhHK-20" value="" style="shape=actor;whiteSpace=wrap;html=1;fillColor=#f8cecc;strokeColor=#b85450;" parent="1" vertex="1">
          <mxGeometry x="464" y="90" width="20" height="20" as="geometry" />
        </mxCell>
        <mxCell id="9YphuFcX1UK5CyFUVhHK-21" value="" style="shape=actor;whiteSpace=wrap;html=1;fillColor=#f8cecc;strokeColor=#b85450;" parent="1" vertex="1">
          <mxGeometry x="494" y="90" width="20" height="20" as="geometry" />
        </mxCell>
        <mxCell id="9YphuFcX1UK5CyFUVhHK-22" value="" style="shape=actor;whiteSpace=wrap;html=1;fillColor=#e1d5e7;strokeColor=#9673a6;" parent="1" vertex="1">
          <mxGeometry x="414" y="90" width="20" height="20" as="geometry" />
        </mxCell>
        <mxCell id="9YphuFcX1UK5CyFUVhHK-24" value="" style="shape=actor;whiteSpace=wrap;html=1;" parent="1" vertex="1">
          <mxGeometry x="670" y="350" width="20" height="20" as="geometry" />
        </mxCell>
        <mxCell id="9YphuFcX1UK5CyFUVhHK-25" value="" style="shape=actor;whiteSpace=wrap;html=1;" parent="1" vertex="1">
          <mxGeometry x="640" y="350" width="20" height="20" as="geometry" />
        </mxCell>
        <mxCell id="9YphuFcX1UK5CyFUVhHK-26" value="" style="shape=actor;whiteSpace=wrap;html=1;" parent="1" vertex="1">
          <mxGeometry x="700" y="350" width="20" height="20" as="geometry" />
        </mxCell>
        <mxCell id="9YphuFcX1UK5CyFUVhHK-27" value="" style="shape=actor;whiteSpace=wrap;html=1;" parent="1" vertex="1">
          <mxGeometry x="730" y="350" width="20" height="20" as="geometry" />
        </mxCell>
        <mxCell id="9YphuFcX1UK5CyFUVhHK-28" value="" style="shape=actor;whiteSpace=wrap;html=1;" parent="1" vertex="1">
          <mxGeometry x="640" y="510" width="20" height="20" as="geometry" />
        </mxCell>
        <mxCell id="9YphuFcX1UK5CyFUVhHK-29" value="" style="shape=actor;whiteSpace=wrap;html=1;" parent="1" vertex="1">
          <mxGeometry x="670" y="510" width="20" height="20" as="geometry" />
        </mxCell>
        <mxCell id="9YphuFcX1UK5CyFUVhHK-30" value="" style="shape=actor;whiteSpace=wrap;html=1;" parent="1" vertex="1">
          <mxGeometry x="700" y="510" width="20" height="20" as="geometry" />
        </mxCell>
        <mxCell id="9YphuFcX1UK5CyFUVhHK-33" value="" style="shape=flexArrow;endArrow=classic;html=1;exitX=0.5;exitY=1;exitDx=0;exitDy=0;" parent="1" source="rI9PQAO7Cf-_ZEgctdfI-14" target="9YphuFcX1UK5CyFUVhHK-34" edge="1">
          <mxGeometry width="50" height="50" relative="1" as="geometry">
            <mxPoint x="410" y="430" as="sourcePoint" />
            <mxPoint x="190" y="380" as="targetPoint" />
          </mxGeometry>
        </mxCell>
        <mxCell id="cXb7aSRqnYAItGbgvJKI-1" value="" style="shape=flexArrow;endArrow=classic;startArrow=classic;html=1;exitX=0.5;exitY=0;exitDx=0;exitDy=0;entryX=0.5;entryY=1;entryDx=0;entryDy=0;" edge="1" parent="1" source="rI9PQAO7Cf-_ZEgctdfI-12" target="rI9PQAO7Cf-_ZEgctdfI-13">
          <mxGeometry width="50" height="50" relative="1" as="geometry">
            <mxPoint x="400" y="370" as="sourcePoint" />
            <mxPoint x="450" y="320" as="targetPoint" />
          </mxGeometry>
        </mxCell>
        <mxCell id="cXb7aSRqnYAItGbgvJKI-2" value="" style="shape=flexArrow;endArrow=classic;startArrow=classic;html=1;exitX=0.5;exitY=1;exitDx=0;exitDy=0;entryX=0.5;entryY=0;entryDx=0;entryDy=0;" edge="1" parent="1" source="rI9PQAO7Cf-_ZEgctdfI-10" target="rI9PQAO7Cf-_ZEgctdfI-11">
          <mxGeometry width="50" height="50" relative="1" as="geometry">
            <mxPoint x="580" y="470" as="sourcePoint" />
            <mxPoint x="630" y="420" as="targetPoint" />
          </mxGeometry>
        </mxCell>
        <mxCell id="cXb7aSRqnYAItGbgvJKI-3" value="" style="shape=flexArrow;endArrow=classic;startArrow=classic;html=1;entryX=0;entryY=0.5;entryDx=0;entryDy=0;exitX=1;exitY=0.25;exitDx=0;exitDy=0;" edge="1" parent="1" source="rI9PQAO7Cf-_ZEgctdfI-1" target="rI9PQAO7Cf-_ZEgctdfI-10">
          <mxGeometry width="50" height="50" relative="1" as="geometry">
            <mxPoint x="580" y="470" as="sourcePoint" />
            <mxPoint x="630" y="420" as="targetPoint" />
          </mxGeometry>
        </mxCell>
      </root>
    </mxGraphModel>
  </diagram>
</mxfile>
